<?xml version="1.0" encoding="iso-8859-1"?>
<!-- Uploaded to: SVG Repo, www.svgrepo.com, Generator: SVG Repo Mixer Tools -->
<svg version="1.1" id="Layer_1" xmlns="http://www.w3.org/2000/svg" xmlns:xlink="http://www.w3.org/1999/xlink" 
	 viewBox="0 0 512 512" xml:space="preserve">
<circle style="fill:#FAC15C;" cx="332.07" cy="119.874" r="32.029"/>
<path style="fill:#F9B233;" d="M332.07,87.847c17.689,0,32.029,14.34,32.029,32.029c0,17.689-14.34,32.029-32.029,32.029"/>
<rect x="187.939" y="464.186" style="fill:#ED7149;" width="32.029" height="40.036"/>
<rect x="187.939" y="376.105" style="fill:#F9B233;" width="32.029" height="88.08"/>
<path style="fill:#ED7149;" d="M228.086,7.775H179.82c-17.628,0-31.918,14.29-31.918,31.918v280.476
	c0,17.628,14.291,31.918,31.918,31.918l8.118,8.007v16.015h32.029v-16.015l8.118-8.007c17.628,0,31.918-14.291,31.918-31.918V39.693
	C260.004,22.065,245.714,7.775,228.086,7.775z"/>
<g>
	<rect x="147.905" y="272.018" style="fill:#FAC15C;" width="112.1" height="32.029"/>
	<rect x="147.905" y="47.809" style="fill:#FAC15C;" width="112.1" height="32.029"/>
</g>
<path style="fill:#1D1D1B;" d="M332.069,80.073c-21.948,0-39.803,17.856-39.803,39.803c0,21.948,17.856,39.804,39.803,39.804
	c21.948,0,39.804-17.856,39.804-39.804C371.874,97.929,354.017,80.073,332.069,80.073z M307.815,119.876
	c0-10.654,6.909-19.72,16.479-22.968v45.938C314.724,139.597,307.815,130.532,307.815,119.876z M339.844,142.846V96.907
	c9.571,3.249,16.48,12.314,16.48,22.969C356.325,130.532,349.416,139.597,339.844,142.846z"/>
<g>
	<rect x="195.942" y="104.097" style="fill:#FFFFFF;" width="40.036" height="15.549"/>
	<rect x="219.97" y="128.115" style="fill:#FFFFFF;" width="16.014" height="15.549"/>
</g>
<path style="fill:#1D1D1B;" d="M240.136,0h-72.365c-15.242,0-27.643,12.4-27.643,27.642v304.576
	c0,15.242,12.401,27.642,27.643,27.642c6.834,0,12.394,5.559,12.394,12.394v115.956c0,13.117,10.672,23.789,23.788,23.789
	c13.117,0,23.789-10.672,23.789-23.789V372.255c0-6.833,5.559-12.394,12.393-12.394c15.242,0,27.643-12.4,27.643-27.642V27.642
	C267.779,12.4,255.378,0,240.136,0z M195.714,383.884h16.479v72.531h-16.479V383.884z M203.953,496.451
	c-4.543,0-8.239-3.697-8.239-8.24v-16.247h16.479v16.247C212.194,492.754,208.496,496.451,203.953,496.451z M252.23,332.219
	c0,6.669-5.425,12.093-12.094,12.093c-14.076,0-25.748,10.465-27.661,24.022h-17.041c-1.913-13.557-13.586-24.022-27.662-24.022
	c-6.67,0-12.094-5.425-12.094-12.093v-20.401h96.553v20.401H252.23z M252.23,296.269h-96.553v-16.48h96.553V296.269z M252.23,264.24
	h-96.553V87.615h96.553V264.24z M252.23,72.066h-96.553v-16.48h96.553V72.066z M252.23,40.036h-96.553V27.642
	c0-6.669,5.425-12.093,12.094-12.093h72.365c6.67,0,12.094,5.425,12.094,12.093L252.23,40.036L252.23,40.036z"/>
</svg>